<?xml version="1.0" encoding="utf-8"?>
<!-- Generator: Adobe Illustrator 24.0.1, SVG Export Plug-In . SVG Version: 6.00 Build 0)  -->
<svg version="1.1" id="Layer_1" xmlns="http://www.w3.org/2000/svg" xmlns:xlink="http://www.w3.org/1999/xlink" x="0px" y="0px"
	 viewBox="0 0 256 256" style="enable-background:new 0 0 256 256;" xml:space="preserve">
<style type="text/css">
	.st0{fill:#EFEFEF;}
</style>
<g transform="translate(1.4065934065934016 1.4065934065934016) scale(2.81 2.81)">
	<path class="st0" d="M81.5,8.5C70.3-2.8,52-2.8,40.7,8.5c-8.4,8.4-10.8,21.1-6,32L1.5,73.6C1.2,74,1,74.4,0.9,74.9L0,87.9
		c0,0.6,0.2,1.1,0.6,1.6C1,89.8,1.5,90,2,90c0,0,0.1,0,0.1,0l12.9-0.9c0.5,0,0.9-0.2,1.3-0.6l3.9-3.9c0.3-0.3,0.5-0.7,0.6-1.1
		l1.2-7.9l7.9-1.2c0.9-0.1,1.6-0.8,1.7-1.7l1.2-7.9l7.9-1.2c0.4-0.1,0.8-0.3,1.1-0.6l7.8-7.8c10.8,4.8,23.5,2.4,32-6
		C87,43.8,90,36.6,90,28.9C90,21.1,87,13.9,81.5,8.5z M73.9,25.9c-2.7,2.7-7.1,2.7-9.8,0s-2.7-7.1,0-9.8c2.7-2.7,7.1-2.7,9.8,0
		S76.6,23.2,73.9,25.9z"/>
</g>
</svg>
