<?xml version="1.0" encoding="utf-8"?>
<!-- Generator: Adobe Illustrator 24.0.1, SVG Export Plug-In . SVG Version: 6.00 Build 0)  -->
<svg version="1.1" id="Layer_1" xmlns="http://www.w3.org/2000/svg" xmlns:xlink="http://www.w3.org/1999/xlink" x="0px" y="0px"
	 viewBox="0 0 19 19" style="enable-background:new 0 0 19 19;" xml:space="preserve">
<style type="text/css">
	.st0{fill:#FFFFFF;}
</style>
<g id="mail">
	<g>
		<path class="st0" d="M17.87,3H9.5H1.13C0.5,3,0,3.51,0,4.13v0.86l9.5,4.87l0,0l0,0L19,4.98V4.13C19,3.51,18.49,3,17.87,3z"/>
		<path class="st0" d="M9.5,11.72L5.47,9.65L0,14.06v0.81C0,15.49,0.5,16,1.13,16H9.5h8.37c0.63,0,1.13-0.51,1.13-1.13v-0.81
			l-5.47-4.41L9.5,11.72z"/>
		<polygon class="st0" points="19,12.62 19,6.85 14.63,9.09 		"/>
		<polygon class="st0" points="0,6.85 0,12.62 4.37,9.09 		"/>
	</g>
</g>
</svg>
